<?xml version="1.0" encoding="utf-8"?>
<svg width="731px" height="761px" viewBox="0 0 731 761" version="1.1" xmlns:xlink="http://www.w3.org/1999/xlink" xmlns="http://www.w3.org/2000/svg">
  <desc>Created with Lunacy</desc>
  <defs>
    <linearGradient x1="0.449098617" y1="-0.5535205" x2="0.449460357" y2="1.42327988" id="gradient_1">
      <stop offset="0" stop-color="#FFFFFF" />
      <stop offset="0.111517631" stop-color="#FCFCFC" />
      <stop offset="0.5005196" stop-color="#E6E6E6" />
      <stop offset="0.7936783" stop-color="#747272" />
      <stop offset="1" stop-color="#D3D3D3" />
    </linearGradient>
    <filter filterUnits="userSpaceOnUse" color-interpolation-filters="sRGB" id="filter_1">
      <feFlood flood-opacity="0" result="BackgroundImageFix" />
      <feColorMatrix in="SourceAlpha" type="matrix" values="0 0 0 0 0 0 0 0 0 0 0 0 0 0 0 0 0 0 127 0" />
      <feOffset dx="0" dy="0" />
      <feGaussianBlur stdDeviation="5" />
      <feColorMatrix type="matrix" values="0 0 0 0 0.3921569 0 0 0 0 0.3921569 0 0 0 0 0.3921569 0 0 0 0.4980392 0" />
      <feBlend mode="normal" in2="BackgroundImageFix" result="effect0_dropShadow" />
      <feBlend mode="normal" in="SourceGraphic" in2="effect0_dropShadow" result="shape" />
    </filter>
  </defs>
  <g id="bucket3" transform="translate(14 14)">
    <g id="bucket">
      <g id="Group" transform="matrix(0.9271839 -0.3746066 0.3746066 0.9271839 0 191.9918)">
        <path d="M133.33 0L486.041 144.677L274.225 539.94L0 423.631L133.33 0L133.33 0L133.33 0Z" transform="translate(0 28.14291)" id="New-shape" fill="#FAF6F6" stroke="none" />
        <path d="M151.297 0L176.828 12.2929L20.8033 425.522L0 416.066L151.297 0L151.297 0L151.297 0Z" transform="translate(59.57309 59.34782)" id="New-shape" fill="#EB4F35" stroke="none" />
        <path d="M157.916 0L187.23 12.2929L22.6945 422.685L0 412.284L157.916 0L157.916 0L157.916 0Z" transform="translate(105.908 82.98799)" id="New-shape" fill="#EB4F35" stroke="none" />
        <path d="M173.045 0L201.413 11.3472L23.6401 417.011L0 407.555L173.045 0L173.045 0L173.045 0Z" transform="translate(155.0791 109.4649)" id="New-shape" fill="#EB4F35" stroke="none" />
        <path d="M185.338 0L208.978 9.45604L19.8577 410.392L0 401.882L185.338 0L185.338 0L185.338 0Z" transform="translate(202.3593 134.0507)" id="New-shape" fill="#EB4F35" stroke="none" />
        <path d="M193.849 0L212.761 7.56483L15.1297 406.61L0 400.936L193.849 0L193.849 0L193.849 0Z" transform="translate(240.1837 152.9627)" id="New-shape" fill="#EB4F35" stroke="none" />
        <path d="M203.305 0L213.707 4.72802L4.72802 399.045L0 396.208L203.305 0L203.305 0L203.305 0Z" transform="translate(264.7695 166.2012)" id="New-shape" fill="#EB4F35" stroke="none" />
        <path d="M134.276 0L143.732 3.78242L5.67362 423.631L0 420.794L134.276 0L134.276 0L134.276 0Z" transform="translate(8.510448 33.8166)" id="New-shape" fill="#EB4F35" stroke="none" />
        <path d="M142.786 0L161.698 7.56484L17.0209 424.576L0 417.957L142.786 0L142.786 0L142.786 0Z" transform="translate(25.53131 43.27254)" id="New-shape" fill="#EB4F35" stroke="none" />
        <g id="Group" transform="translate(134.4062 18.37787)">
          <path d="M0 0L378.242 0L378.242 9.45607L0 9.45607L0 0L0 0L0 0Z" transform="matrix(0.9271839 0.3746066 -0.3746066 0.9271839 3.542313 0)" id="Rectangle" fill="none" stroke="none" />
        </g>
        <g id="Group" transform="translate(136.9845 34.85736)">
          <path d="M0 1.90735e-06L360 6.12669e-06L360 14L-1.64086e-07 14L0 1.90735e-06L0 1.90735e-06Z" transform="matrix(0.9271838 0.3746065 -0.3746065 0.9271838 5.244492 0)" id="Rectangle" fill="none" stroke="none" />
        </g>
        <g filter="url(#filter_1)">
          <path d="M14 0L363 0Q363.359 0 363.715 0.0163205Q364.071 0.032641 364.424 0.0652487Q364.777 0.0978564 365.126 0.146685Q365.476 0.195513 365.82 0.260463Q366.165 0.325412 366.504 0.40635Q366.844 0.487288 367.177 0.58405Q367.51 0.680811 367.837 0.793199Q368.164 0.905586 368.483 1.03337Q368.803 1.16115 369.114 1.30408Q369.426 1.447 369.729 1.60476Q370.032 1.76253 370.325 1.93481Q370.619 2.1071 370.903 2.29356Q371.187 2.48002 371.46 2.68027Q371.734 2.88052 371.996 3.09415Q372.259 3.30778 372.51 3.53436Q372.761 3.76094 373 4Q373.239 4.23906 373.466 4.49012Q373.692 4.74118 373.906 5.00372Q374.12 5.26627 374.32 5.53976Q374.52 5.81325 374.706 6.09713Q374.893 6.38102 375.065 6.67471Q375.238 6.96841 375.395 7.27131Q375.553 7.57422 375.696 7.88572Q375.839 8.19722 375.967 8.51669Q376.094 8.83615 376.207 9.16292Q376.319 9.48969 376.416 9.82309Q376.513 10.1565 376.594 10.4959Q376.675 10.8352 376.74 11.1799Q376.805 11.5245 376.853 11.8737Q376.902 12.2229 376.935 12.576Q376.967 12.929 376.984 13.2852Q377 13.6414 377 14L377 17Q377 17.3586 376.984 17.7148Q376.967 18.071 376.935 18.424Q376.902 18.7771 376.853 19.1263Q376.805 19.4755 376.74 19.8201Q376.675 20.1648 376.594 20.5041Q376.513 20.8435 376.416 21.1769Q376.319 21.5103 376.207 21.8371Q376.094 22.1639 375.967 22.4833Q375.839 22.8028 375.696 23.1143Q375.553 23.4258 375.395 23.7287Q375.238 24.0316 375.065 24.3253Q374.893 24.619 374.706 24.9029Q374.52 25.1868 374.32 25.4602Q374.12 25.7337 373.906 25.9963Q373.692 26.2588 373.466 26.5099Q373.239 26.7609 373 27Q372.761 27.2391 372.51 27.4656Q372.259 27.6922 371.996 27.9059Q371.734 28.1195 371.46 28.3197Q371.187 28.52 370.903 28.7064Q370.619 28.8929 370.325 29.0652Q370.032 29.2375 369.729 29.3952Q369.426 29.553 369.114 29.6959Q368.803 29.8389 368.483 29.9666Q368.164 30.0944 367.837 30.2068Q367.51 30.3192 367.177 30.416Q366.844 30.5127 366.504 30.5937Q366.165 30.6746 365.82 30.7395Q365.476 30.8045 365.126 30.8533Q364.777 30.9021 364.424 30.9348Q364.071 30.9674 363.715 30.9837Q363.359 31 363 31L14 31Q13.6414 31 13.2852 30.9837Q12.929 30.9674 12.576 30.9348Q12.2229 30.9021 11.8737 30.8533Q11.5245 30.8045 11.1799 30.7395Q10.8352 30.6746 10.4959 30.5937Q10.1565 30.5127 9.82309 30.416Q9.48969 30.3192 9.16292 30.2068Q8.83615 30.0944 8.51669 29.9666Q8.19722 29.8389 7.88572 29.6959Q7.57422 29.553 7.27131 29.3952Q6.96841 29.2375 6.67471 29.0652Q6.38102 28.8929 6.09713 28.7064Q5.81325 28.52 5.53976 28.3197Q5.26627 28.1195 5.00372 27.9059Q4.74118 27.6922 4.49012 27.4656Q4.23906 27.2391 4 27Q3.76094 26.7609 3.53436 26.5099Q3.30778 26.2588 3.09415 25.9963Q2.88052 25.7337 2.68027 25.4602Q2.48002 25.1868 2.29356 24.9029Q2.1071 24.619 1.93481 24.3253Q1.76253 24.0316 1.60476 23.7287Q1.447 23.4258 1.30408 23.1143Q1.16115 22.8028 1.03337 22.4833Q0.905586 22.1639 0.793199 21.8371Q0.680811 21.5103 0.58405 21.1769Q0.487288 20.8435 0.40635 20.5041Q0.325412 20.1648 0.260463 19.8201Q0.195513 19.4755 0.146685 19.1263Q0.0978564 18.7771 0.0652487 18.424Q0.032641 18.071 0.0163205 17.7148Q0 17.3586 0 17L0 14Q0 13.6414 0.0163205 13.2852Q0.032641 12.929 0.0652487 12.576Q0.0978564 12.2229 0.146685 11.8737Q0.195513 11.5245 0.260463 11.1799Q0.325412 10.8352 0.40635 10.4959Q0.487288 10.1565 0.58405 9.82309Q0.680811 9.48969 0.793199 9.16292Q0.905586 8.83615 1.03337 8.51669Q1.16115 8.19722 1.30408 7.88572Q1.447 7.57422 1.60476 7.27131Q1.76253 6.96841 1.93481 6.67471Q2.1071 6.38102 2.29356 6.09713Q2.48002 5.81325 2.68027 5.53976Q2.88052 5.26627 3.09415 5.00372Q3.30778 4.74118 3.53436 4.49012Q3.76094 4.23906 4 4Q4.23906 3.76094 4.49012 3.53436Q4.74118 3.30778 5.00372 3.09415Q5.26627 2.88052 5.53976 2.68027Q5.81325 2.48002 6.09713 2.29356Q6.38102 2.1071 6.67471 1.93481Q6.96841 1.76253 7.27131 1.60476Q7.57422 1.447 7.88572 1.30408Q8.19722 1.16115 8.51669 1.03337Q8.83615 0.905586 9.16292 0.793199Q9.48969 0.680811 9.82309 0.58405Q10.1565 0.487288 10.4959 0.40635Q10.8352 0.325412 11.1799 0.260463Q11.5245 0.195513 11.8737 0.146685Q12.2229 0.0978564 12.576 0.0652487Q12.929 0.032641 13.2852 0.0163205Q13.6414 0 14 0Z" transform="matrix(0.9271838 0.3746065 -0.3746065 0.9271838 139.6081 18.51909)" id="Rectangle" fill="none" stroke="none" />
        </g>
        <path d="M13.8482 26.5L410.49 27C410.49 27 418.001 21 418.94 12C419.878 3.00001 409.552 1 409.552 1L13.3788 1.54043e-07C13.3788 1.54043e-07 2.58263 1 0.235626 10.5C-2.11137 20 13.8482 26.5 13.8482 26.5L13.8482 26.5Z" transform="matrix(0.9271838 0.3746065 -0.3746065 0.9271838 124.0254 0)" id="New-shape" fill="url(#gradient_1)" stroke="none" />
        <g id="Group" transform="translate(102.9572 116.6456)">
          <path d="M2.2068e-07 0L363.112 3.85185e-06L363.112 20.8031L0 20.8031L2.2068e-07 0L2.2068e-07 0L2.2068e-07 0Z" transform="matrix(-0.3746066 0.9271839 -0.9271839 -0.3746066 155.3125 7.792984)" id="Rectangle" fill="none" stroke="none" />
        </g>
      </g>
    </g>
  </g>
</svg>