<?xml version="1.0" encoding="utf-8"?>
<svg width="769px" height="483px" viewBox="0 0 769 483" version="1.1" xmlns:xlink="http://www.w3.org/1999/xlink" xmlns="http://www.w3.org/2000/svg">
  <desc>Created with Lunacy</desc>
  <defs>
    <filter filterUnits="userSpaceOnUse" color-interpolation-filters="sRGB" id="filter_1">
      <feFlood flood-opacity="0" result="BackgroundImageFix" />
      <feColorMatrix in="SourceAlpha" type="matrix" values="0 0 0 0 0 0 0 0 0 0 0 0 0 0 0 0 0 0 127 0" />
      <feOffset dx="0" dy="0" />
      <feGaussianBlur stdDeviation="25" />
      <feColorMatrix type="matrix" values="0 0 0 0 0 0 0 0 0 0 0 0 0 0 1 0 0 0 0.4980392 0" />
      <feBlend mode="normal" in2="BackgroundImageFix" result="effect0_dropShadow" />
      <feColorMatrix in="SourceAlpha" type="matrix" values="0 0 0 0 0 0 0 0 0 0 0 0 0 0 0 0 0 0 127 0" />
      <feOffset dx="0" dy="0" />
      <feGaussianBlur stdDeviation="2.5" />
      <feColorMatrix type="matrix" values="0 0 0 0 1 0 0 0 0 1 0 0 0 0 1 0 0 0 1 0" />
      <feBlend mode="normal" in2="effect0_dropShadow" result="effect1_dropShadow" />
      <feBlend mode="normal" in="SourceGraphic" in2="effect1_dropShadow" result="shape" />
    </filter>
    <rect width="769" height="483" id="artboard_1" />
    <clipPath id="clip_1">
      <use xlink:href="#artboard_1" clip-rule="evenodd" />
    </clipPath>
  </defs>
  <g id="Artboard" clip-path="url(#clip_1)">
    <use xlink:href="#artboard_1" stroke="none" fill="#000000" />
    <g filter="url(#filter_1)" transform="translate(219 117)">
      <g id="Type-something">
        <path d="M260.632 34.5869L257.327 34.5869L257.327 23.4072Q257.327 22.0537 257.195 20.8848Q257.063 19.7158 256.694 19.0127Q256.29 18.2744 255.569 17.9141Q254.849 17.5537 253.601 17.5537Q252.37 17.5537 251.061 18.2129Q249.751 18.8721 248.503 19.9268L248.503 34.5869L245.198 34.5869L245.198 7.23535L248.503 7.23535L248.503 17.1318Q249.979 15.8135 251.421 15.1104Q252.862 14.4072 254.462 14.4072Q257.362 14.4072 258.997 16.3145Q260.632 18.2217 260.632 21.8428L260.632 34.5869ZM265.114 11.665L268.876 11.665L268.876 8.2373L265.114 8.2373L265.114 11.665ZM65.6904 34.5869L65.6904 11.5068L56.9014 11.5068L56.9014 8.41309L77.96 8.41309L77.96 11.5068L69.1709 11.5068L69.1709 34.5869L65.6904 34.5869ZM234.88 33.4355Q236.392 34.9736 239.099 34.9736Q239.907 34.9736 240.865 34.8242Q241.823 34.6748 242.755 34.4111L242.755 31.4404L242.562 31.4404Q242.228 31.5986 241.472 31.8359Q240.716 32.0732 239.907 32.0732Q238.765 32.0732 238.097 31.7656Q237.429 31.458 237.13 30.8428Q236.778 30.1396 236.726 29.3311Q236.673 28.5225 236.673 27.0283L236.673 17.6943L242.755 17.6943L242.755 14.9521L236.673 14.9521L236.673 9.30957L233.368 9.30957L233.368 14.9521L231.136 14.9521L231.136 17.6943L233.368 17.6943L233.368 28.5752Q233.368 31.8975 234.88 33.4355ZM112.387 32.0645Q114.733 29.1553 114.733 24.251Q114.733 19.751 112.844 17.0791Q110.954 14.4072 107.579 14.4072Q105.804 14.4072 104.301 15.1543Q102.798 15.9014 101.567 17.0088L101.567 14.9521L98.2627 14.9521L98.2627 41.8291L101.567 41.8291L101.567 33.6025Q102.745 34.3057 103.87 34.6396Q104.995 34.9736 106.454 34.9736Q110.04 34.9736 112.387 32.0645ZM126.687 35.0439Q121.993 35.0439 119.4 32.3984Q116.808 29.7529 116.808 24.8838Q116.808 20.085 119.321 17.2461Q121.835 14.4072 125.896 14.4072Q127.724 14.4072 129.13 14.9346Q130.536 15.4619 131.591 16.5869Q132.646 17.7119 133.208 19.3379Q133.771 20.9639 133.771 23.3193L133.771 25.1123L120.165 25.1123Q120.165 28.54 121.888 30.3506Q123.61 32.1611 126.651 32.1611Q127.741 32.1611 128.787 31.915Q129.833 31.6689 130.677 31.2822Q131.573 30.8779 132.188 30.5Q132.804 30.1221 133.208 29.7881L133.401 29.7881L133.401 33.3916Q132.821 33.6201 131.96 33.9629Q131.099 34.3057 130.413 34.499Q129.446 34.7627 128.664 34.9033Q127.882 35.0439 126.687 35.0439ZM180.581 24.7783Q180.581 29.7354 178.19 32.4336Q175.8 35.1318 171.827 35.1318Q167.731 35.1318 165.385 32.3457Q163.038 29.5596 163.038 24.7783Q163.038 19.8564 165.455 17.1318Q167.872 14.4072 171.827 14.4072Q175.8 14.4072 178.19 17.123Q180.581 19.8389 180.581 24.7783ZM206.263 23.2314L206.263 34.5869L209.567 34.5869L209.567 21.667Q209.567 19.6455 209.137 18.3096Q208.706 16.9736 207.915 16.0771Q207.142 15.1982 206.104 14.8027Q205.067 14.4072 203.802 14.4072Q202.132 14.4072 200.708 15.2686Q199.284 16.1299 197.79 17.7998Q197.087 15.9893 195.742 15.1982Q194.397 14.4072 192.657 14.4072Q191.128 14.4072 189.854 15.1191Q188.579 15.8311 187.278 17.1318L187.278 14.9521L183.974 14.9521L183.974 34.5869L187.278 34.5869L187.278 19.9268Q188.386 18.8896 189.563 18.2217Q190.741 17.5537 191.813 17.5537Q192.921 17.5537 193.571 17.8877Q194.222 18.2217 194.573 18.9248Q194.907 19.5752 195.013 20.7266Q195.118 21.8779 195.118 23.2314L195.118 34.5869L198.423 34.5869L198.423 21.667Q198.423 21.1045 198.396 20.6914Q198.37 20.2783 198.353 19.9795Q199.601 18.8018 200.77 18.1777Q201.938 17.5537 202.958 17.5537Q204.065 17.5537 204.716 17.8877Q205.366 18.2217 205.718 18.9248Q206.052 19.5752 206.157 20.7266Q206.263 21.8779 206.263 23.2314ZM222.733 35.0439Q218.04 35.0439 215.447 32.3984Q212.854 29.7529 212.854 24.8838Q212.854 20.085 215.368 17.2461Q217.882 14.4072 221.942 14.4072Q223.771 14.4072 225.177 14.9346Q226.583 15.4619 227.638 16.5869Q228.692 17.7119 229.255 19.3379Q229.817 20.9639 229.817 23.3193L229.817 25.1123L216.212 25.1123Q216.212 28.54 217.935 30.3506Q219.657 32.1611 222.698 32.1611Q223.788 32.1611 224.834 31.915Q225.88 31.6689 226.724 31.2822Q227.62 30.8779 228.235 30.5Q228.851 30.1221 229.255 29.7881L229.448 29.7881L229.448 33.3916Q228.868 33.6201 228.007 33.9629Q227.146 34.3057 226.46 34.499Q225.493 34.7627 224.711 34.9033Q223.929 35.0439 222.733 35.0439ZM288.933 34.5869L285.628 34.5869L285.628 23.4072Q285.628 22.0537 285.496 20.8848Q285.364 19.7158 284.995 19.0127Q284.591 18.2744 283.87 17.9141Q283.149 17.5537 281.901 17.5537Q280.671 17.5537 279.361 18.2129Q278.052 18.8721 276.804 19.9268L276.804 34.5869L273.499 34.5869L273.499 14.9521L276.804 14.9521L276.804 17.1318Q278.28 15.8135 279.722 15.1104Q281.163 14.4072 282.763 14.4072Q285.663 14.4072 287.298 16.3145Q288.933 18.2217 288.933 21.8428L288.933 34.5869ZM295.261 38.1113Q294.61 37.874 294.276 37.7334L294.101 37.7334L294.101 41.1787Q295.401 41.5654 296.904 41.7939Q298.407 42.0225 299.849 42.0225Q304.331 42.0225 306.511 39.6846Q308.69 37.3467 308.69 32.3545L308.69 14.9521L305.579 14.9521L305.386 15.7959Q304.261 15.1279 303.145 14.7676Q302.028 14.4072 300.499 14.4072Q298.882 14.4072 297.37 15.0928Q295.858 15.7783 294.751 17.0439Q293.591 18.3623 292.905 20.252Q292.22 22.1416 292.22 24.585Q292.22 29.2607 294.206 31.7568Q296.192 34.2529 299.55 34.2529Q301.483 34.2529 302.767 33.6992Q304.05 33.1455 305.386 31.9854L305.386 33.708Q305.386 34.9209 305.157 35.8701Q304.929 36.8193 304.366 37.54Q303.769 38.2607 302.705 38.665Q301.642 39.0693 300.112 39.0693Q299.198 39.0693 298.425 38.9287Q297.651 38.7881 296.737 38.5596Q295.911 38.3486 295.261 38.1113ZM149.986 34.5342Q151.7 35.0615 153.669 35.0615Q155.673 35.0615 157 34.6045Q158.327 34.1475 159.382 33.2686Q160.349 32.46 160.85 31.3262Q161.351 30.1924 161.351 28.9268Q161.351 26.7471 160.252 25.4814Q159.153 24.2158 156.974 23.6709Q155.972 23.4248 155.066 23.2402Q154.161 23.0557 153.423 22.8623Q151.946 22.4756 151.278 21.8691Q150.61 21.2627 150.61 20.0322Q150.61 18.6436 151.735 17.958Q152.86 17.2725 154.495 17.2725Q156.077 17.2725 157.633 17.8525Q159.188 18.4326 160.454 19.4346L160.63 19.4346L160.63 15.9014Q159.505 15.2861 157.853 14.8818Q156.2 14.4775 154.565 14.4775Q151.243 14.4775 149.239 16.1475Q147.235 17.8174 147.235 20.4717Q147.235 22.4053 148.255 23.7676Q149.274 25.1299 151.524 25.7803Q152.386 26.0264 153.405 26.2373Q154.425 26.4482 155.058 26.6064Q156.692 27.0107 157.334 27.6084Q157.976 28.2061 157.976 29.3838Q157.976 30.2979 157.703 30.7549Q157.431 31.2119 156.815 31.6162Q156.376 31.8975 155.479 32.082Q154.583 32.2666 153.792 32.2666Q152.702 32.2666 151.691 31.9678Q150.681 31.6689 149.837 31.2822Q148.888 30.8428 148.316 30.4385Q147.745 30.0342 147.323 29.7002L147.147 29.7002L147.147 33.4092Q148.272 34.0068 149.986 34.5342ZM95.7666 14.9521L85.2021 41.8291L81.6689 41.8291L85.1846 33.6377L78.0479 14.9521L81.6162 14.9521L86.9775 29.4893L92.3213 14.9521L95.7666 14.9521ZM265.343 34.5869L268.647 34.5869L268.647 14.9521L265.343 14.9521L265.343 34.5869ZM130.554 22.5811Q130.519 21.2451 130.237 20.2783Q129.956 19.3115 129.429 18.6436Q128.849 17.9053 127.943 17.5186Q127.038 17.1318 125.702 17.1318Q124.384 17.1318 123.461 17.5273Q122.538 17.9229 121.782 18.6787Q121.044 19.4521 120.657 20.3926Q120.271 21.333 120.165 22.5811L130.554 22.5811ZM226.601 22.5811Q226.565 21.2451 226.284 20.2783Q226.003 19.3115 225.476 18.6436Q224.896 17.9053 223.99 17.5186Q223.085 17.1318 221.749 17.1318Q220.431 17.1318 219.508 17.5273Q218.585 17.9229 217.829 18.6787Q217.091 19.4521 216.704 20.3926Q216.317 21.333 216.212 22.5811L226.601 22.5811ZM177.171 24.7783Q177.171 20.9639 175.782 19.1094Q174.394 17.2549 171.827 17.2549Q169.243 17.2549 167.846 19.1094Q166.448 20.9639 166.448 24.7783Q166.448 28.4697 167.846 30.377Q169.243 32.2842 171.827 32.2842Q174.376 32.2842 175.773 30.4121Q177.171 28.54 177.171 24.7783ZM305.386 18.4854L305.386 29.2607Q304.296 30.1748 302.934 30.6846Q301.571 31.1943 300.288 31.1943Q297.827 31.1943 296.729 29.4893Q295.63 27.7842 295.63 24.5146Q295.63 21.0693 297.071 19.2236Q298.513 17.3779 301.026 17.3779Q302.063 17.3779 303.109 17.6328Q304.155 17.8877 305.386 18.4854ZM110.251 19.4082Q111.323 21.2627 111.323 24.6201Q111.323 28.2412 109.899 30.1221Q108.476 32.0029 105.909 32.0029Q104.714 32.0029 103.791 31.7744Q102.868 31.5459 101.567 30.9131L101.567 19.7861Q102.745 18.8018 104.055 18.1777Q105.364 17.5537 106.771 17.5537Q109.179 17.5537 110.251 19.4082Z" />
      </g>
    </g>
  </g>
</svg>