<?xml version="1.0" encoding="utf-8"?>
<svg width="64px" height="64px" viewBox="0 0 64 64" version="1.1" xmlns:xlink="http://www.w3.org/1999/xlink" xmlns="http://www.w3.org/2000/svg">
  <desc>Created with Lunacy</desc>
  <defs>
    <linearGradient x1="0.31910637" y1="-0.00138723012" x2="0.588519931" y2="1.02358186" id="gradient_1">
      <stop offset="0" stop-color="#F9ECDC" />
      <stop offset="1" stop-color="#E2C088" />
    </linearGradient>
    <radialGradient gradientUnits="objectBoundingBox" cx="76.62705%" cy="71.33283%" fx="76.62705%" fy="71.33283%" r="71.99853%" gradientTransform="translate(0.7662705,0.7133283),scale(0.9934511,1),rotate(-0.850728),scale(1,0.7634175),translate(-0.7662705,-0.7133283)" id="gradient_2">
      <stop offset="0%" stop-color="#E0AF69" />
      <stop offset="11.97194%" stop-color="#E4B36B" />
      <stop offset="33.95619%" stop-color="#E0B368" />
      <stop offset="44.88336%" stop-color="#CB8330" />
      <stop offset="73.29662%" stop-color="#BB681A" />
      <stop offset="76.77419%" stop-color="#B35C22" />
      <stop offset="100%" stop-color="#924C07" />
    </radialGradient>
    <filter filterUnits="userSpaceOnUse" color-interpolation-filters="sRGB" id="filter_1">
      <feFlood flood-opacity="0" result="BackgroundImageFix" />
      <feColorMatrix in="SourceAlpha" type="matrix" values="0 0 0 0 0 0 0 0 0 0 0 0 0 0 0 0 0 0 127 0" />
      <feOffset dx="0" dy="0" />
      <feGaussianBlur stdDeviation="1.5" />
      <feColorMatrix type="matrix" values="0 0 0 0 1 0 0 0 0 1 0 0 0 0 1 0 0 0 1 0" />
      <feBlend mode="normal" in2="BackgroundImageFix" result="effect0_dropShadow" />
      <feBlend mode="normal" in="SourceGraphic" in2="effect0_dropShadow" result="shape" />
    </filter>
  </defs>
  <g id="Group" transform="translate(8 8)">
    <path d="M6.15686 7.53879C6.15686 7.53879 6.15686 4.53879 7.65686 3.53879C9.15686 2.53879 10.6569 4.03879 10.6569 4.03879C10.6569 4.03879 11.1569 0.538788 13.6569 0.0387878C16.1569 -0.461212 18.6569 4.03879 18.6569 4.03879C18.6569 4.03879 25.6569 -3.96121 35.6569 4.03879C45.6569 12.0388 31.6569 34.0388 31.6569 34.0388C31.6569 34.0388 26.1569 42.5388 15.1569 38.5388C4.15686 34.5388 1.65686 23.0388 0.65686 20.0388C-0.34314 17.0388 -0.34314 13.5388 1.65686 11.0388C3.65686 8.53879 6.15686 9.53879 6.15686 8.53879C6.15686 7.53879 6.15686 7.53879 6.15686 7.53879Z" id="New-shape" fill="url(#gradient_1)" stroke="none" />
    <path d="M0 10.0917C0 8.09167 0.5 7.59167 1 7.09167C1.5 6.59167 9 -0.908325 14.5 0.0916748C20 1.09167 20 4.59167 20 4.59167C20 4.59167 20.5 12.5917 20 15.0917C19.5 17.5917 11.5 22.5917 7 18.5917C2.5 14.5917 0 12.0917 0 10.0917Z" transform="translate(7.65686 10.44711)" id="New-shape" fill="url(#gradient_2)" stroke="none" />
    <g filter="url(#filter_1)">
      <path d="M0 1C0 0.447715 0.671573 0 1.5 0C2.32843 0 3 0.447715 3 1C3 1.55228 2.32843 2 1.5 2C0.671573 2 0 1.55228 0 1Z" transform="matrix(0.8660254 0.5 -0.5 0.8660254 30.96069 5.672775)" id="Oval" fill="none" stroke="none" />
    </g>
  </g>
</svg>